<svg xmlns="http://www.w3.org/2000/svg" viewBox="0 0 36 36">
  <defs>
    <linearGradient id="g" x1="0%" y1="0%" x2="100%" y2="100%">
      <stop offset="0%" stop-color="#1e3a5f"/>
      <stop offset="100%" stop-color="#3b82f6"/>
    </linearGradient>
  </defs>
  <rect width="36" height="36" rx="8" fill="url(#g)"/>
  <g transform="translate(6, 6) scale(1.0)">
    <path fill="white" d="M20 4H4v2l1 1h14l1-1V4zm1 3H3l-1 1v2l1 1v7h1v-7h14v7h1V11l1-1V8l-1-1zM8 17H5v-4h3v4zm4 0h-3v-4h3v4zm4 0h-3v-4h3v4zm4 1v3H4v-3h16zm0 4H4v1h16v-1z"/>
  </g>
</svg>